PathFileType	4	(X/Y/Z)	/home/nbianco/projects/addbio/data/HamnerRunning2013/Processed/subject04//results/MarkerData/run500.trc
DataRate	CameraRate	NumFrames	NumMarkers	Units	OrigDataRate	OrigDataStartFrame	OrigNumFrames
100	100	10	41	m	100	70	187
Frame#	Time	C7			CLAV			LACR			LASI			LCAL			LFAradius			LFAsuperior			LFAulna			LLEL			LMEL			LPSI			LTB1			LTB2			LTB3			LTH1			LTH2			LTH3			LTOE			LUA1			LUA2			LUA3			RACR			RASI			RCAL			RFAradius			RFAsuperior			RFAulna			RLEL			RMEL			RMT5			RPSI			RTB1			RTB2			RTB3			RTH1			RTH2			RTH3			RTOE			RUA1			RUA2			RUA3		
		X1	Y1	Z1	X2	Y2	Z2	X3	Y3	Z3	X4	Y4	Z4	X5	Y5	Z5	X6	Y6	Z6	X7	Y7	Z7	X8	Y8	Z8	X9	Y9	Z9	X10	Y10	Z10	X11	Y11	Z11	X12	Y12	Z12	X13	Y13	Z13	X14	Y14	Z14	X15	Y15	Z15	X16	Y16	Z16	X17	Y17	Z17	X18	Y18	Z18	X19	Y19	Z19	X20	Y20	Z20	X21	Y21	Z21	X22	Y22	Z22	X23	Y23	Z23	X24	Y24	Z24	X25	Y25	Z25	X26	Y26	Z26	X27	Y27	Z27	X28	Y28	Z28	X29	Y29	Z29	X30	Y30	Z30	X31	Y31	Z31	X32	Y32	Z32	X33	Y33	Z33	X34	Y34	Z34	X35	Y35	Z35	X36	Y36	Z36	X37	Y37	Z37	X38	Y38	Z38	X39	Y39	Z39	X40	Y40	Z40	X41	Y41	Z41

71	0.96	1.10709	1.51394	-0.406083	1.21732	1.41237	-0.371096	1.18528	1.50185	-0.567956	1.14717	0.960025	-0.567048	0.651406	0.63756	-0.495014	1.22679	1.12725	-0.604612	1.10417	1.19089	-0.714358	1.20894	1.06662	-0.641559	1.03454	1.24755	-0.736802	0.984535	1.23143	-0.661451	0.974561	1.02066	-0.496342	0.869091	0.43893	-0.532459	0.81478	0.486491	-0.570867	0.741036	0.489836	-0.511485	1.06203	0.807436	-0.624952	1.1116	0.673688	-0.615368	1.02978	0.563789	-0.614701	0.572194	0.413379	-0.474306	1.12156	1.41042	-0.661374	1.03394	1.37677	-0.661391	1.06192	1.30584	-0.707402	1.15861	1.46176	-0.231205	1.13444	0.968892	-0.311003	1.07708	0.101968	-0.453507	1.14131	1.15853	-0.186052	0.996643	1.22518	-0.118539	1.10701	1.10242	-0.158426	0.917468	1.26325	-0.115288	0.894616	1.25933	-0.205568	1.30531	0.0499594	-0.379559	0.959082	1.02773	-0.401565	1.26023	0.351335	-0.397874	1.20089	0.249085	-0.367328	1.21161	0.184782	-0.439904	1.11236	0.815415	-0.256219	1.18251	0.73959	-0.268315	1.17939	0.593163	-0.302561	1.31218	0.0763957	-0.457992	1.05934	1.36458	-0.150183	0.992315	1.38051	-0.166647	0.978738	1.31421	-0.137024
72	0.97	1.10822	1.51244	-0.404095	1.21764	1.40748	-0.372566	1.18216	1.49732	-0.569477	1.14405	0.955183	-0.567458	0.676388	0.629733	-0.499344	1.20749	1.10904	-0.618392	1.08562	1.1865	-0.71647	1.18355	1.05149	-0.657821	1.01738	1.24754	-0.734524	0.970933	1.23075	-0.657395	0.972512	1.01772	-0.499146	0.900658	0.434063	-0.531722	0.845747	0.478912	-0.572424	0.77146	0.482919	-0.51339	1.0659	0.803496	-0.624751	1.12407	0.673856	-0.616533	1.05091	0.55879	-0.615723	0.605283	0.40295	-0.479167	1.11263	1.4072	-0.660897	1.02358	1.3752	-0.656162	1.04786	1.30417	-0.704429	1.16097	1.45467	-0.229427	1.1317	0.967917	-0.309637	1.02823	0.104321	-0.453236	1.16134	1.145	-0.185764	1.01786	1.20338	-0.11322	1.12996	1.08686	-0.157767	0.937117	1.23758	-0.105942	0.907734	1.23256	-0.19378	1.25676	0.0509133	-0.380516	0.957623	1.02485	-0.402799	1.23544	0.3461	-0.401035	1.16819	0.248828	-0.367475	1.17048	0.183598	-0.440947	1.10762	0.814815	-0.255733	1.17587	0.737027	-0.268156	1.17214	0.590219	-0.303178	1.263	0.0750532	-0.459421	1.07161	1.34458	-0.148825	1.00249	1.35985	-0.155946	0.993197	1.29073	-0.131322
73	0.98	1.10836	1.51184	-0.402761	1.21742	1.40466	-0.3742	1.1781	1.49482	-0.570699	1.14174	0.952935	-0.567642	0.699267	0.618523	-0.502973	1.1861	1.09675	-0.630861	1.0667	1.18668	-0.718947	1.15631	1.04255	-0.671883	1.0001	1.25139	-0.732687	0.956417	1.23371	-0.654034	0.971122	1.01692	-0.50079	0.933754	0.429995	-0.530938	0.878121	0.472087	-0.573788	0.802642	0.474538	-0.515379	1.06914	0.802629	-0.624595	1.13822	0.676822	-0.617276	1.07457	0.557943	-0.616791	0.640576	0.388221	-0.484377	1.10374	1.40681	-0.660391	1.01345	1.37695	-0.650604	1.03347	1.3068	-0.702041	1.16322	1.4498	-0.229023	1.13015	0.968165	-0.309099	0.979176	0.106539	-0.452727	1.18324	1.13595	-0.187392	1.0421	1.18584	-0.111602	1.15506	1.07563	-0.159245	0.959378	1.21516	-0.0993898	0.922169	1.20877	-0.184028	1.20738	0.0503225	-0.380571	0.957432	1.02307	-0.403844	1.20593	0.337677	-0.402843	1.13155	0.245555	-0.367825	1.12768	0.180482	-0.441357	1.10358	0.812912	-0.25645	1.16773	0.732719	-0.269452	1.1592	0.584722	-0.304646	1.21377	0.073761	-0.459438	1.08487	1.32954	-0.149619	1.01422	1.34254	-0.148237	1.00898	1.27219	-0.12727
74	0.99	1.1072	1.51107	-0.401712	1.21707	1.4039	-0.375962	1.1726	1.4947	-0.571646	1.14046	0.953374	-0.567539	0.720491	0.603925	-0.504994	1.16342	1.09154	-0.641251	1.04658	1.19132	-0.722064	1.12856	1.04052	-0.682663	0.982512	1.2597	-0.73149	0.941056	1.24109	-0.651681	0.970231	1.01778	-0.500717	0.967323	0.426987	-0.53035	0.910837	0.466308	-0.574693	0.834041	0.465063	-0.517063	1.07128	0.803488	-0.624505	1.15355	0.682444	-0.617308	1.10003	0.56078	-0.617704	0.677862	0.369905	-0.490276	1.09406	1.40957	-0.660051	1.00293	1.38242	-0.645275	1.01844	1.31394	-0.700367	1.16591	1.44739	-0.229605	1.12936	0.968698	-0.309131	0.930134	0.109114	-0.45209	1.2056	1.13362	-0.191293	1.06697	1.17444	-0.113358	1.1815	1.07107	-0.163173	0.982151	1.1981	-0.0961626	0.937637	1.19023	-0.177698	1.15731	0.0492722	-0.380459	0.958583	1.02247	-0.404583	1.1724	0.327333	-0.403891	1.09247	0.24055	-0.368765	1.08363	0.176822	-0.441761	1.09966	0.809153	-0.257765	1.15868	0.725785	-0.27117	1.14093	0.577638	-0.306485	1.16439	0.0721319	-0.459483	1.09724	1.32109	-0.151097	1.02583	1.32952	-0.144437	1.02513	1.2594	-0.125155
75	1	1.10508	1.51038	-0.400522	1.21686	1.40517	-0.377887	1.16565	1.49698	-0.572201	1.14011	0.955682	-0.567032	0.740616	0.585879	-0.505155	1.14059	1.09387	-0.649391	1.02499	1.20011	-0.725334	1.10176	1.04539	-0.690076	0.964465	1.27216	-0.730695	0.924881	1.25298	-0.649953	0.969826	1.01962	-0.499319	1.00065	0.425249	-0.529843	0.942984	0.461616	-0.574917	0.865334	0.454913	-0.51814	1.07289	0.805034	-0.62464	1.16917	0.690883	-0.616314	1.12594	0.566853	-0.617868	0.717188	0.348877	-0.496827	1.08295	1.41569	-0.659645	0.991701	1.39138	-0.640536	1.00284	1.32493	-0.699258	1.16933	1.44762	-0.230495	1.12883	0.969052	-0.30917	0.881115	0.112395	-0.45116	1.22661	1.13916	-0.197423	1.08953	1.16974	-0.117121	1.2078	1.07456	-0.169431	1.00309	1.18722	-0.095972	0.954065	1.17787	-0.175523	1.10676	0.0488461	-0.380514	0.96079	1.02304	-0.404873	1.1356	0.317485	-0.404998	1.05178	0.235911	-0.369954	1.03841	0.174288	-0.442166	1.095	0.80424	-0.259095	1.14864	0.716935	-0.27239	1.11911	0.570638	-0.308221	1.11457	0.0706954	-0.459979	1.10755	1.31856	-0.152169	1.03612	1.32119	-0.143597	1.04063	1.25175	-0.124996
76	1.01	1.10281	1.51097	-0.398986	1.21683	1.40838	-0.380081	1.1577	1.50143	-0.572242	1.14053	0.958907	-0.566234	0.760135	0.564339	-0.503845	1.11853	1.10313	-0.655367	1.00285	1.21297	-0.727769	1.07694	1.05642	-0.694756	0.946101	1.28784	-0.729749	0.907994	1.26874	-0.648184	0.970065	1.02206	-0.497526	1.03354	0.424958	-0.529315	0.974133	0.458023	-0.574449	0.896497	0.444372	-0.518599	1.0753	0.807486	-0.625138	1.18415	0.702251	-0.614293	1.15088	0.576048	-0.616901	0.758916	0.326087	-0.503515	1.07043	1.42504	-0.658672	0.980097	1.40326	-0.636381	0.987128	1.33865	-0.698318	1.17335	1.45041	-0.231371	1.12854	0.969271	-0.308969	0.832311	0.116869	-0.449884	1.24482	1.15206	-0.205406	1.10822	1.17096	-0.121555	1.23242	1.086	-0.177429	1.02104	1.18188	-0.097876	0.971259	1.17112	-0.17704	1.05604	0.0490256	-0.380699	0.963456	1.02471	-0.40462	1.09638	0.310229	-0.406264	1.00961	0.233206	-0.370797	0.992369	0.173603	-0.442266	1.08895	0.799641	-0.260597	1.13684	0.707987	-0.2731	1.09506	0.56516	-0.309592	1.06444	0.06968	-0.460572	1.11612	1.32007	-0.152891	1.04508	1.3175	-0.14402	1.05477	1.24835	-0.126353
77	1.02	1.10109	1.51383	-0.397214	1.21688	1.41336	-0.38264	1.14949	1.50772	-0.571846	1.14172	0.962704	-0.565489	0.779604	0.539374	-0.501693	1.09777	1.11775	-0.659259	0.981662	1.22977	-0.728517	1.05441	1.07226	-0.697376	0.927913	1.30577	-0.728035	0.890775	1.28731	-0.64584	0.971176	1.02521	-0.496066	1.06608	0.4262	-0.528845	1.00424	0.455435	-0.573423	0.927696	0.433481	-0.51859	1.07955	0.811885	-0.625947	1.19775	0.716202	-0.61161	1.1738	0.588228	-0.614892	0.803492	0.30253	-0.509585	1.05725	1.43718	-0.656727	0.968825	1.41738	-0.632488	0.971814	1.35421	-0.697042	1.17761	1.45551	-0.232485	1.12883	0.96959	-0.308679	0.784209	0.123312	-0.448345	1.25969	1.17058	-0.214667	1.12363	1.17677	-0.126102	1.25435	1.10394	-0.18643	1.03645	1.18075	-0.10074	0.988564	1.16878	-0.180722	1.00535	0.0493278	-0.380913	0.966042	1.02735	-0.40387	1.05571	0.306546	-0.406976	0.966171	0.23317	-0.370919	0.946152	0.174739	-0.441843	1.08159	0.796695	-0.262621	1.12267	0.700828	-0.273748	1.06917	0.56212	-0.310569	1.01442	0.068857	-0.460948	1.12413	1.32407	-0.154001	1.05353	1.31788	-0.144822	1.06741	1.24868	-0.128462
78	1.03	1.10001	1.51894	-0.395516	1.21685	1.41991	-0.385581	1.14173	1.5154	-0.571226	1.14389	0.967313	-0.565077	0.799813	0.511266	-0.499125	1.07849	1.13582	-0.661193	0.962426	1.24982	-0.727333	1.03399	1.09121	-0.698253	0.910497	1.32535	-0.725094	0.873994	1.30768	-0.642528	0.973359	1.02935	-0.495112	1.09811	0.428779	-0.528425	1.03334	0.453434	-0.571948	0.959104	0.422141	-0.518192	1.08565	0.818902	-0.62688	1.20961	0.731901	-0.608732	1.19426	0.602778	-0.612185	0.851068	0.279182	-0.514371	1.04454	1.45155	-0.653741	0.958622	1.4332	-0.62838	0.957232	1.37124	-0.694994	1.18176	1.4625	-0.234313	1.13009	0.970211	-0.30853	0.737521	0.132578	-0.446553	1.27141	1.19267	-0.224568	1.13742	1.18589	-0.130793	1.27326	1.12633	-0.195976	1.05068	1.18268	-0.103643	1.00499	1.16984	-0.184711	0.954663	0.0495423	-0.381126	0.96849	1.03084	-0.402831	1.0146	0.306464	-0.406274	0.922209	0.236106	-0.370191	0.900509	0.177728	-0.440809	1.07379	0.796008	-0.264888	1.10674	0.696657	-0.274603	1.04181	0.56206	-0.311087	0.964812	0.0679764	-0.461118	1.13257	1.32979	-0.156003	1.06221	1.32129	-0.146227	1.07896	1.25236	-0.130621
79	1.04	1.09914	1.52541	-0.394233	1.21666	1.42774	-0.388845	1.13493	1.52384	-0.570494	1.1472	0.972947	-0.565009	0.821742	0.480559	-0.496238	1.06084	1.15569	-0.661476	0.945197	1.27182	-0.7245	1.0154	1.11174	-0.697478	0.894272	1.34622	-0.7207	0.858673	1.32916	-0.637804	0.976684	1.03454	-0.494455	1.12912	0.432091	-0.52772	1.06139	0.45127	-0.570074	0.990831	0.410293	-0.517336	1.09277	0.82818	-0.627816	1.21981	0.748359	-0.605954	1.21223	0.618637	-0.609102	0.901277	0.256884	-0.517414	1.03344	1.46753	-0.649993	0.950049	1.45018	-0.623558	0.943603	1.38978	-0.691881	1.18558	1.47097	-0.237065	1.13243	0.971297	-0.30862	0.693058	0.145147	-0.444387	1.28036	1.21666	-0.234545	1.15068	1.19737	-0.135607	1.28921	1.1512	-0.205997	1.0648	1.18699	-0.106052	1.01976	1.17356	-0.187655	0.903908	0.0497288	-0.381308	0.971222	1.035	-0.401745	0.973918	0.309662	-0.403793	0.878757	0.242205	-0.36854	0.856114	0.18297	-0.439024	1.06669	0.797351	-0.266596	1.09086	0.695719	-0.275701	1.01418	0.565188	-0.31082	0.915602	0.0670656	-0.461173	1.14162	1.3369	-0.158785	1.07128	1.32662	-0.148482	1.09013	1.25876	-0.132499
80	1.05	1.09802	1.53227	-0.3936	1.21633	1.43646	-0.392325	1.1293	1.53238	-0.569582	1.15155	0.979342	-0.565103	0.846268	0.447985	-0.493047	1.04504	1.17618	-0.660613	0.929461	1.29438	-0.720434	0.998501	1.1328	-0.695271	0.879409	1.36807	-0.714813	0.8457	1.35124	-0.631232	0.981006	1.04043	-0.493862	1.15854	0.435291	-0.526311	1.08844	0.448099	-0.567865	1.02296	0.397981	-0.51589	1.10005	0.838667	-0.628754	1.22866	0.764763	-0.603355	1.22787	0.634733	-0.605921	0.95335	0.236194	-0.518369	1.02467	1.48437	-0.645931	0.943388	1.46764	-0.61765	0.93124	1.40974	-0.68755	1.18895	1.4805	-0.240558	1.13572	0.972997	-0.308939	0.65162	0.160855	-0.441686	1.28686	1.24133	-0.244196	1.16346	1.21051	-0.14019	1.30227	1.17706	-0.216482	1.07913	1.19325	-0.107779	1.03277	1.17926	-0.189054	0.853304	0.049897	-0.381349	0.974664	1.03961	-0.400742	0.934319	0.315919	-0.399779	0.83671	0.251539	-0.365883	0.813656	0.190871	-0.436256	1.06092	0.799971	-0.267267	1.07679	0.697397	-0.277042	0.987965	0.571275	-0.309375	0.866778	0.0663826	-0.461032	1.15085	1.34516	-0.161908	1.08052	1.33321	-0.150909	1.10143	1.26696	-0.134083
